<svg xmlns="http://www.w3.org/2000/svg" version="1.1" xmlns:xlink="http://www.w3.org/1999/xlink" xmlns:svgjs="http://svgjs.dev/svgjs" width="1500" height="1500" viewBox="0 0 1500 1500"><rect width="1500" height="1500" fill="#000000"></rect><g transform="matrix(0.6666666666666666,0,0,0.6666666666666666,249.39393939393938,435.99032258064517)"><svg viewBox="0 0 396 248" data-background-color="#ffffff" preserveAspectRatio="xMidYMid meet" height="939" width="1500" xmlns="http://www.w3.org/2000/svg" xmlns:xlink="http://www.w3.org/1999/xlink"><g id="tight-bounds" transform="matrix(1,0,0,1,0.2400000000000091,0.4000000000000057)"><svg viewBox="0 0 395.52 247.2" height="247.2" width="395.52"><g><svg></svg></g><g><svg viewBox="0 0 395.52 247.2" height="247.2" width="395.52"><g transform="matrix(1,0,0,1,75.54432,51.286207718737515)"><svg viewBox="0 0 244.43135999999998 144.62758456252496" height="144.62758456252496" width="244.43135999999998"><g><svg viewBox="0 0 244.43135999999998 144.62758456252496" height="144.62758456252496" width="244.43135999999998"><g><svg viewBox="0 0 244.43135999999998 144.62758456252496" height="144.62758456252496" width="244.43135999999998"><g><svg viewBox="0 0 244.43135999999998 144.62758456252496" height="144.62758456252496" width="244.43135999999998"><g id="textblocktransform"><svg viewBox="0 0 244.43135999999998 144.62758456252496" height="144.62758456252496" width="244.43135999999998" id="textblock"><g><svg viewBox="0 0 244.43135999999998 144.62758456252496" height="144.62758456252496" width="244.43135999999998"><g transform="matrix(1,0,0,1,0,0)"><svg width="244.43135999999998" viewBox="1.34 -35.4 61.11 36.16" height="144.62758456252496" data-palette-color="#2a2c35"><path d="M31.1-17.36L31.1-3.54Q28.66-1.46 25.66-0.35 22.66 0.76 19.41 0.76L19.41 0.76Q16.92 0.76 14.61 0.11 12.3-0.54 10.3-1.72 8.3-2.91 6.64-4.55 4.98-6.2 3.81-8.22 2.64-10.23 1.99-12.55 1.34-14.87 1.34-17.36L1.34-17.36Q1.34-19.85 1.99-22.14 2.64-24.44 3.81-26.45 4.98-28.47 6.64-30.11 8.3-31.76 10.3-32.93 12.3-34.11 14.61-34.75 16.92-35.4 19.41-35.4L19.41-35.4Q22.66-35.4 25.66-34.29 28.66-33.18 31.1-31.1L31.1-31.1 27.44-25Q25.85-26.61 23.78-27.53 21.7-28.44 19.41-28.44L19.41-28.44Q17.11-28.44 15.1-27.56 13.09-26.68 11.57-25.18 10.06-23.68 9.18-21.67 8.3-19.65 8.3-17.36L8.3-17.36Q8.3-15.04 9.18-13.01 10.06-10.99 11.57-9.47 13.09-7.96 15.1-7.08 17.11-6.2 19.41-6.2L19.41-6.2Q20.73-6.2 21.97-6.52 23.22-6.84 24.34-7.4L24.34-7.4 24.34-17.36 31.1-17.36ZM34.45-24.51L34.45-24.51Q34.45-26.68 35.28-28.59 36.11-30.49 37.53-31.92 38.96-33.35 40.87-34.18 42.77-35.01 44.94-35.01L44.94-35.01 61.01-35.01 61.01-28 44.94-28Q44.21-28 43.58-27.73 42.94-27.47 42.47-26.99 41.99-26.51 41.72-25.88 41.45-25.24 41.45-24.51L41.45-24.51Q41.45-23.78 41.72-23.13 41.99-22.49 42.47-22.01 42.94-21.53 43.58-21.26 44.21-21 44.94-21L44.94-21 51.95-21Q54.12-21 56.04-20.18 57.96-19.36 59.38-17.93 60.81-16.5 61.63-14.59 62.45-12.67 62.45-10.5L62.45-10.5Q62.45-8.33 61.63-6.42 60.81-4.52 59.38-3.09 57.96-1.66 56.04-0.83 54.12 0 51.95 0L51.95 0 36.4 0 36.4-7.01 51.95-7.01Q52.68-7.01 53.32-7.28 53.95-7.54 54.43-8.02 54.9-8.5 55.17-9.13 55.44-9.77 55.44-10.5L55.44-10.5Q55.44-11.23 55.17-11.87 54.9-12.5 54.43-12.98 53.95-13.45 53.32-13.72 52.68-13.99 51.95-13.99L51.95-13.99 44.94-13.99Q42.77-13.99 40.87-14.82 38.96-15.65 37.53-17.08 36.11-18.51 35.28-20.42 34.45-22.34 34.45-24.51Z" opacity="1" transform="matrix(1,0,0,1,0,0)" fill="#ffffff" class="wordmark-text-0" data-fill-palette-color="primary" id="text-0"></path></svg></g></svg></g></svg></g></svg></g></svg></g></svg></g></svg></g><path d="M254.151 45.286L254.151 1.827 10.605 1.827 10.605 245.373 254.151 245.373 254.151 201.914 241.108 201.914 241.108 232.33 23.648 232.33 23.648 14.87 241.108 14.87 241.108 45.286Z" fill="#ffffff" stroke="transparent" data-fill-palette-color="tertiary"></path></svg></g><defs></defs></svg><rect width="395.52" height="247.2" fill="none" stroke="none" visibility="hidden"></rect></g></svg></g></svg>